<svg version="1.0" xmlns="http://www.w3.org/2000/svg" width="78.667" height="74.667" viewBox="0 0 59 56"><path d="M8.2 8.2c-1.9 1.9-1.6 21.2.4 23.2 3.2 3.2 7.4 1 7.4-3.9 0-1.9.4-3.5.8-3.5s2.8 2 5.2 4.5c6.2 6.3 8.4 6.1 15.3-1.6l5.5-6.1-3.1-2.8-3.2-2.9-3.8 3.7-3.7 3.6-7.8-7.7c-7.6-7.6-10.5-9-13-6.5z"/><path d="M24.9 9.1c-2.6 5 3.5 9.3 7.5 5.3 1.9-1.8 2-2.8.6-5.5-1.5-2.7-6.6-2.6-8.1.2zm17.7 17c-2.3 3.3-.6 6.4 3.4 6.4 4.2 0 5.9-2.3 4.2-5.9-1.5-3.2-5.5-3.5-7.6-.5zm-34 16.5c-2 2-2 4.8 0 6.8 3 3 7.4 1 7.4-3.4s-4.4-6.4-7.4-3.4zm17.1.2c-2.2 2.4-2.1 4.5.1 6.5 2.4 2.2 4.5 2.1 6.5-.1 2.2-2.4 2.1-4.5-.1-6.5-2.4-2.2-4.5-2.1-6.5.1zm18.1-.7c-2.8 1.6-2.3 6.7.7 8.1 4.6 2.1 8.6-4 4.9-7.6-1.8-1.8-3.2-2-5.6-.5z"/></svg>